# xmcd
#
# Track frame offsets:
#	150
#	11473
#	22443
#	32597
#	38062
#	51320
#	66693
#	73089
#	83613
#	98724
#	109855
#	121429
#	139393
#	148081
#	153617
#	161073
#	178609
#	187275
#	197804
#	208999
#
# Disc length: 3003 seconds
#
# Revision: 3
# Processed by: cddbd v1.5.2PL0 Copyright (c) Steve Scherf et al.
# Submitted via: VUPlayer 2.49
#
DISCID=3b0bb914
DTITLE=Various Artist - That's Country CD-5
DYEAR=2002
DGENRE=Country
TTITLE0=Barbara Mandrell - We've Got Everything But Love
TTITLE1=Willie Nelson - Go Away
TTITLE2=Bob Wills - Sooner Or Later
TTITLE3=Danny Davis and Nashville Brass - Mountain Music
TTITLE4=Kenny Rogers - Shine On Ruby Mountain
TTITLE5=Don Williams - Till the Rivers All Run Dry
TTITLE6=Tammy Wynette - Welcome To My World
TTITLE7=Anne Murray - For Baby
TTITLE8=Conway Twitty - Play Guitar Play
TTITLE9=Johnny Paycheck - Make Me One More Memory
TTITLE10=Eddie Raven - Dealin' with the Devil
TTITLE11=Merle Haggard - What Am I Gonna Do
TTITLE12=Willie Nelson - Why Are you Pickin' On Me
TTITLE13=Bob Wills - Done Gone
TTITLE14=Dolly Parton - Puppy Love
TTITLE15=Nitty Gritty Dirt - Partners, Brothers, Friends
TTITLE16=Carl Perkins - Honky Tonk Gal
TTITLE17=Carl Perkins - I Can Feel it
TTITLE18=Frankie Laine - Love is A Golden Ring
TTITLE19=Ferlin Husky - Giddy-Up Go
EXTD=Disk 5 of 5
EXTT0=
EXTT1=
EXTT2=
EXTT3=
EXTT4=
EXTT5=
EXTT6=
EXTT7=
EXTT8=
EXTT9=
EXTT10=
EXTT11=
EXTT12=
EXTT13=
EXTT14=
EXTT15=
EXTT16=
EXTT17=
EXTT18=
EXTT19=
PLAYORDER=
